<svg xmlns="http://www.w3.org/2000/svg" viewBox="0 0 40 40" fill="none">
  <circle cx="20" cy="20" r="18" fill="#ac6137" opacity="0.15"/>
  <path d="M20 8 C20 8 14 14 14 20 C14 24 17 27 20 28 C23 27 26 24 26 20 C26 14 20 8 20 8Z" fill="#ac6137"/>
  <path d="M20 12 C20 12 16 16 16 20 C16 23 18 25 20 26 C22 25 24 23 24 20 C24 16 20 12 20 12Z" fill="#f5f1ea"/>
  <path d="M20 28 L20 34" stroke="#ac6137" stroke-width="2" stroke-linecap="round"/>
  <path d="M17 30 L20 33 L23 30" stroke="#ac6137" stroke-width="1.5" stroke-linecap="round" fill="none"/>
  <circle cx="20" cy="20" r="2.5" fill="#ac6137"/>
</svg>
